<svg xmlns="http://www.w3.org/2000/svg" shape-rendering="geometricPrecision" text-rendering="geometricPrecision" image-rendering="optimizeQuality" fill-rule="evenodd" clip-rule="evenodd" viewBox="0 0 512 486.68"><path d="M10.208 0h108.173c5.615 0 10.207 4.593 10.207 10.208v100.159c0 5.615-4.592 10.208-10.207 10.208H10.208C4.593 120.575 0 115.982 0 110.367V10.208C0 4.593 4.593 0 10.208 0zm387.687 366.105h99.621c7.967 0 14.484 6.517 14.484 14.484v91.607c0 7.967-6.517 14.484-14.484 14.484h-99.621c-7.967 0-14.484-6.517-14.484-14.484v-91.607c0-7.967 6.517-14.484 14.484-14.484zm-191.706 0h99.621c7.967 0 14.484 6.517 14.484 14.484v91.607c0 7.967-6.517 14.484-14.484 14.484h-99.621c-7.967 0-14.483-6.517-14.483-14.484v-91.607c0-7.967 6.516-14.484 14.483-14.484zm-191.705 0h99.621c7.967 0 14.483 6.517 14.483 14.484v91.607c0 7.967-6.516 14.484-14.483 14.484H14.484C6.517 486.68 0 480.163 0 472.196v-91.607c0-7.967 6.517-14.484 14.484-14.484zm379.135-183.052h108.173c5.615 0 10.208 4.593 10.208 10.207v100.16c0 5.614-4.593 10.208-10.208 10.208H393.619c-5.615 0-10.208-4.594-10.208-10.208V193.26c0-5.614 4.593-10.207 10.208-10.207zm-191.706 0h108.173c5.615 0 10.208 4.593 10.208 10.207v100.16c0 5.614-4.593 10.208-10.208 10.208H201.913c-5.614 0-10.207-4.594-10.207-10.208V193.26c0-5.614 4.593-10.207 10.207-10.207zm-191.705 0h108.173c5.615 0 10.207 4.593 10.207 10.207v100.16c0 5.614-4.592 10.208-10.207 10.208H10.208C4.593 303.628 0 299.034 0 293.42V193.26c0-5.614 4.593-10.207 10.208-10.207zM393.619 0h108.173C507.407 0 512 4.593 512 10.208v100.159c0 5.615-4.593 10.208-10.208 10.208H393.619c-5.615 0-10.208-4.593-10.208-10.208V10.208C383.411 4.593 388.004 0 393.619 0zM201.913 0h108.173c5.615 0 10.208 4.593 10.208 10.208v100.159c0 5.615-4.593 10.208-10.208 10.208H201.913c-5.614 0-10.207-4.593-10.207-10.208V10.208C191.706 4.593 196.299 0 201.913 0z"/></svg>